<svg xmlns="http://www.w3.org/2000/svg" width="53" height="75" viewBox="0 0 53 75">
  <g id="Group_1145" data-name="Group 1145" transform="translate(-10698 16387)">
    <circle id="Ellipse_378" data-name="Ellipse 378" cx="5" cy="5" r="5" transform="translate(10711 -16335)"/>
    <circle id="Ellipse_379" data-name="Ellipse 379" cx="5" cy="5" r="5" transform="translate(10711 -16361)"/>
    <circle id="Ellipse_374" data-name="Ellipse 374" cx="5" cy="5" r="5" transform="translate(10736 -16355)"/>
    <circle id="Ellipse_375" data-name="Ellipse 375" cx="5" cy="5" r="5" transform="translate(10741 -16368)"/>
    <circle id="Ellipse_380" data-name="Ellipse 380" cx="5" cy="5" r="5" transform="translate(10711 -16387)"/>
    <circle id="Ellipse_381" data-name="Ellipse 381" cx="5" cy="5" r="5" transform="translate(10724 -16387)"/>
    <circle id="Ellipse_382" data-name="Ellipse 382" cx="5" cy="5" r="5" transform="translate(10711 -16322)"/>
    <circle id="Ellipse_386" data-name="Ellipse 386" cx="5" cy="5" r="5" transform="translate(10698 -16322)"/>
    <circle id="Ellipse_387" data-name="Ellipse 387" cx="5" cy="5" r="5" transform="translate(10698 -16387)"/>
    <circle id="Ellipse_376" data-name="Ellipse 376" cx="5" cy="5" r="5" transform="translate(10724 -16322)"/>
    <circle id="Ellipse_383" data-name="Ellipse 383" cx="5" cy="5" r="5" transform="translate(10711 -16348)"/>
    <circle id="Ellipse_377" data-name="Ellipse 377" cx="5" cy="5" r="5" transform="translate(10724 -16348)"/>
    <circle id="Ellipse_384" data-name="Ellipse 384" cx="5" cy="5" r="5" transform="translate(10711 -16374)"/>
    <circle id="Ellipse_385" data-name="Ellipse 385" cx="5" cy="5" r="5" transform="translate(10736 -16381)"/>
  </g>
</svg>
