<svg xmlns="http://www.w3.org/2000/svg" width="88.772" height="95.926" viewBox="0 0 88.772 95.926">
  <g id="user-filled-person-shape-svgrepo" transform="translate(-3.577)">
    <g id="Group_1365" data-name="Group 1365">
      <path id="Path_409" data-name="Path 409" d="M47.893,47.221c11.768,0,21.341-10.592,21.341-23.611S59.66,0,47.893,0,26.55,10.592,26.55,23.61,36.125,47.221,47.893,47.221Z"/>
      <path id="Path_410" data-name="Path 410" d="M72.477,44.123a3,3,0,0,0-3.192,1.355A26.016,26.016,0,0,1,47.962,58.2a26.013,26.013,0,0,1-21.32-12.722,3,3,0,0,0-3.2-1.354C6.868,47.777,2.5,72.8,3.789,93.115a3,3,0,0,0,2.994,2.811h82.36a3,3,0,0,0,2.993-2.811C93.429,72.775,89.057,47.74,72.477,44.123Z"/>
    </g>
  </g>
</svg>
