<svg xmlns="http://www.w3.org/2000/svg" width="90" height="98" viewBox="0 0 90 98">
  <g id="user-filled-person-shape-svgrepo" transform="translate(-3.577)">
    <g id="Group_1365" data-name="Group 1365" transform="translate(3.578)">
      <path id="Path_409" data-name="Path 409" d="M47.893,47.221c11.768,0,21.341-10.592,21.341-23.611S59.66,0,47.893,0,26.55,10.592,26.55,23.61,36.125,47.221,47.893,47.221Z" transform="translate(-2.965)"/>
      <path id="Path_410" data-name="Path 410" d="M73.431,44.123a3.059,3.059,0,0,0-3.236,1.355A26.435,26.435,0,0,1,48.577,58.2,26.432,26.432,0,0,1,26.961,45.478a3.059,3.059,0,0,0-3.244-1.354C6.914,47.777,2.485,72.8,3.792,93.115a3.024,3.024,0,0,0,3.035,2.811h83.5a3.024,3.024,0,0,0,3.034-2.811C94.673,72.775,90.241,47.74,73.431,44.123Z" transform="translate(-3.578 2.074)"/>
    </g>
  </g>
</svg>
