<svg xmlns="http://www.w3.org/2000/svg" width="377.732" height="191.451" viewBox="0 0 377.732 191.451"><g transform="translate(-602 -466)"><g transform="translate(602 466)"><g transform="translate(0 0.015)"><circle cx="5.274" cy="5.274" r="5.274" fill="#1a1818"/><circle cx="5.274" cy="5.274" r="5.274" transform="translate(0 13.448)" fill="#1a1818"/><circle cx="5.274" cy="5.274" r="5.274" transform="translate(0 26.896)" fill="#1a1818"/><g transform="translate(13.463)"><circle cx="5.274" cy="5.274" r="5.274" fill="#1a1818"/><circle cx="5.274" cy="5.274" r="5.274" transform="translate(0 13.448)" fill="#1a1818"/><circle cx="5.274" cy="5.274" r="5.274" transform="translate(0 26.896)" fill="#1a1818"/></g><g transform="translate(26.926)"><circle cx="5.274" cy="5.274" r="5.274" fill="#1a1818"/><circle cx="5.274" cy="5.274" r="5.274" transform="translate(0 13.448)" fill="#1a1818"/><circle cx="5.274" cy="5.274" r="5.274" transform="translate(0 26.896)" fill="#1a1818"/></g><g transform="translate(40.388)"><circle cx="5.274" cy="5.274" r="5.274" fill="#1a1818"/><circle cx="5.274" cy="5.274" r="5.274" transform="translate(0 13.448)" fill="#1a1818"/><circle cx="5.274" cy="5.274" r="5.274" transform="translate(0 26.896)" fill="#1a1818"/></g><g transform="translate(53.851)"><circle cx="5.274" cy="5.274" r="5.274" fill="#1a1818"/><circle cx="5.274" cy="5.274" r="5.274" transform="translate(0 13.448)" fill="#1a1818"/><circle cx="5.274" cy="5.274" r="5.274" transform="translate(0 26.896)" fill="#1a1818"/></g><g transform="translate(67.314)"><circle cx="5.274" cy="5.274" r="5.274" fill="#1a1818"/><circle cx="5.274" cy="5.274" r="5.274" transform="translate(0 13.448)" fill="#1a1818"/><circle cx="5.274" cy="5.274" r="5.274" transform="translate(0 26.896)" fill="#1a1818"/></g><g transform="translate(80.777)"><circle cx="5.274" cy="5.274" r="5.274" fill="#1a1818"/><circle cx="5.274" cy="5.274" r="5.274" transform="translate(0 13.448)" fill="#1a1818"/><circle cx="5.274" cy="5.274" r="5.274" transform="translate(0 26.896)" fill="#1a1818"/></g></g><g transform="translate(286.408 0.015)"><circle cx="5.274" cy="5.274" r="5.274" fill="#1a1818"/><circle cx="5.274" cy="5.274" r="5.274" transform="translate(0 13.448)" fill="#1a1818"/><g transform="translate(13.463)"><circle cx="5.274" cy="5.274" r="5.274" fill="#1a1818"/><circle cx="5.274" cy="5.274" r="5.274" transform="translate(0 13.448)" fill="#1a1818"/></g><g transform="translate(26.926)"><circle cx="5.274" cy="5.274" r="5.274" fill="#1a1818"/><circle cx="5.274" cy="5.274" r="5.274" transform="translate(0 13.448)" fill="#1a1818"/></g><g transform="translate(40.388)"><circle cx="5.274" cy="5.274" r="5.274" fill="#1a1818"/><circle cx="5.274" cy="5.274" r="5.274" transform="translate(0 13.448)" fill="#1a1818"/></g><g transform="translate(53.851)"><circle cx="5.274" cy="5.274" r="5.274" fill="#1a1818"/><circle cx="5.274" cy="5.274" r="5.274" transform="translate(0 13.448)" fill="#1a1818"/></g><g transform="translate(67.314)"><circle cx="5.274" cy="5.274" r="5.274" fill="#1a1818"/><circle cx="5.274" cy="5.274" r="5.274" transform="translate(0 13.448)" fill="#1a1818"/></g><g transform="translate(80.777)"><circle cx="5.274" cy="5.274" r="5.274" fill="#1a1818"/><circle cx="5.274" cy="5.274" r="5.274" transform="translate(0 13.448)" fill="#1a1818"/></g></g><g transform="translate(106.09 0)"><circle cx="5.274" cy="5.274" r="5.274" transform="translate(26.896)" fill="#1a1818"/><circle cx="5.274" cy="5.274" r="5.274" transform="translate(13.448)" fill="#1a1818"/><circle cx="5.274" cy="5.274" r="5.274" transform="translate(0)" fill="#1a1818"/><circle cx="5.274" cy="5.274" r="5.274" transform="translate(26.896 13.463)" fill="#1a1818"/><circle cx="5.274" cy="5.274" r="5.274" transform="translate(13.448 13.463)" fill="#1a1818"/><circle cx="5.274" cy="5.274" r="5.274" transform="translate(0 13.463)" fill="#1a1818"/><circle cx="5.274" cy="5.274" r="5.274" transform="translate(26.896 26.926)" fill="#1a1818"/><circle cx="5.274" cy="5.274" r="5.274" transform="translate(13.448 26.926)" fill="#1a1818"/><circle cx="5.274" cy="5.274" r="5.274" transform="translate(0 26.926)" fill="#1a1818"/><circle cx="5.274" cy="5.274" r="5.274" transform="translate(26.896 40.388)" fill="#1a1818"/><circle cx="5.274" cy="5.274" r="5.274" transform="translate(13.448 40.388)" fill="#1a1818"/><circle cx="5.274" cy="5.274" r="5.274" transform="translate(0 40.388)" fill="#1a1818"/><circle cx="5.274" cy="5.274" r="5.274" transform="translate(26.896 53.851)" fill="#1a1818"/><circle cx="5.274" cy="5.274" r="5.274" transform="translate(13.448 53.851)" fill="#1a1818"/><circle cx="5.274" cy="5.274" r="5.274" transform="translate(40.344)" fill="#1a1818"/><circle cx="5.274" cy="5.274" r="5.274" transform="translate(40.344 13.463)" fill="#1a1818"/><circle cx="5.274" cy="5.274" r="5.274" transform="translate(40.344 26.926)" fill="#1a1818"/><circle cx="5.274" cy="5.274" r="5.274" transform="translate(40.344 40.388)" fill="#1a1818"/><circle cx="5.274" cy="5.274" r="5.274" transform="translate(40.344 53.851)" fill="#1a1818"/><circle cx="5.274" cy="5.274" r="5.274" transform="translate(0 53.851)" fill="#1a1818"/></g><g transform="translate(170.693 0)"><circle cx="5.274" cy="5.274" r="5.274" transform="translate(26.896)" fill="#1a1818"/><circle cx="5.274" cy="5.274" r="5.274" transform="translate(13.448)" fill="#1a1818"/><circle cx="5.274" cy="5.274" r="5.274" transform="translate(0)" fill="#1a1818"/><circle cx="5.274" cy="5.274" r="5.274" transform="translate(26.896 13.463)" fill="#1a1818"/><circle cx="5.274" cy="5.274" r="5.274" transform="translate(13.448 13.463)" fill="#1a1818"/><circle cx="5.274" cy="5.274" r="5.274" transform="translate(0 13.463)" fill="#1a1818"/><circle cx="5.274" cy="5.274" r="5.274" transform="translate(26.896 26.926)" fill="#1a1818"/><circle cx="5.274" cy="5.274" r="5.274" transform="translate(13.448 26.926)" fill="#1a1818"/><circle cx="5.274" cy="5.274" r="5.274" transform="translate(0 26.926)" fill="#1a1818"/><circle cx="5.274" cy="5.274" r="5.274" transform="translate(26.896 40.388)" fill="#1a1818"/><circle cx="5.274" cy="5.274" r="5.274" transform="translate(13.448 40.388)" fill="#1a1818"/><circle cx="5.274" cy="5.274" r="5.274" transform="translate(0 40.388)" fill="#1a1818"/><circle cx="5.274" cy="5.274" r="5.274" transform="translate(26.896 53.851)" fill="#1a1818"/><circle cx="5.274" cy="5.274" r="5.274" transform="translate(13.448 53.851)" fill="#1a1818"/><circle cx="5.274" cy="5.274" r="5.274" transform="translate(0 53.851)" fill="#1a1818"/></g><g transform="translate(222.771 0)"><circle cx="5.274" cy="5.274" r="5.274" transform="translate(26.896)" fill="#1a1818"/><circle cx="5.274" cy="5.274" r="5.274" transform="translate(13.448)" fill="#1a1818"/><circle cx="5.274" cy="5.274" r="5.274" transform="translate(0)" fill="#1a1818"/><circle cx="5.274" cy="5.274" r="5.274" transform="translate(26.896 13.463)" fill="#1a1818"/><circle cx="5.274" cy="5.274" r="5.274" transform="translate(13.448 13.463)" fill="#1a1818"/><circle cx="5.274" cy="5.274" r="5.274" transform="translate(0 13.463)" fill="#1a1818"/><circle cx="5.274" cy="5.274" r="5.274" transform="translate(26.896 26.926)" fill="#1a1818"/><circle cx="5.274" cy="5.274" r="5.274" transform="translate(13.448 26.926)" fill="#1a1818"/><circle cx="5.274" cy="5.274" r="5.274" transform="translate(0 26.926)" fill="#1a1818"/><circle cx="5.274" cy="5.274" r="5.274" transform="translate(26.896 40.388)" fill="#1a1818"/><circle cx="5.274" cy="5.274" r="5.274" transform="translate(13.448 40.388)" fill="#1a1818"/><circle cx="5.274" cy="5.274" r="5.274" transform="translate(0 40.388)" fill="#1a1818"/><circle cx="5.274" cy="5.274" r="5.274" transform="translate(26.896 53.851)" fill="#1a1818"/><circle cx="5.274" cy="5.274" r="5.274" transform="translate(13.448 53.851)" fill="#1a1818"/><circle cx="5.274" cy="5.274" r="5.274" transform="translate(40.344)" fill="#1a1818"/><circle cx="5.274" cy="5.274" r="5.274" transform="translate(40.344 13.463)" fill="#1a1818"/><circle cx="5.274" cy="5.274" r="5.274" transform="translate(40.344 26.926)" fill="#1a1818"/><circle cx="5.274" cy="5.274" r="5.274" transform="translate(40.344 40.388)" fill="#1a1818"/><circle cx="5.274" cy="5.274" r="5.274" transform="translate(40.344 53.851)" fill="#1a1818"/><circle cx="5.274" cy="5.274" r="5.274" transform="translate(0 53.851)" fill="#1a1818"/></g><g transform="translate(0 51.346)"><circle cx="5.274" cy="5.274" r="5.274" fill="#1a1818"/><circle cx="5.274" cy="5.274" r="5.274" transform="translate(0 13.448)" fill="#1a1818"/><circle cx="5.274" cy="5.274" r="5.274" transform="translate(0 26.896)" fill="#1a1818"/><g transform="translate(13.463)"><circle cx="5.274" cy="5.274" r="5.274" fill="#1a1818"/><circle cx="5.274" cy="5.274" r="5.274" transform="translate(0 13.448)" fill="#1a1818"/><circle cx="5.274" cy="5.274" r="5.274" transform="translate(0 26.896)" fill="#1a1818"/></g><g transform="translate(26.926)"><circle cx="5.274" cy="5.274" r="5.274" fill="#1a1818"/><circle cx="5.274" cy="5.274" r="5.274" transform="translate(0 13.448)" fill="#1a1818"/><circle cx="5.274" cy="5.274" r="5.274" transform="translate(0 26.896)" fill="#1a1818"/></g><g transform="translate(40.388)"><circle cx="5.274" cy="5.274" r="5.274" fill="#1a1818"/><circle cx="5.274" cy="5.274" r="5.274" transform="translate(0 13.448)" fill="#1a1818"/><circle cx="5.274" cy="5.274" r="5.274" transform="translate(0 26.896)" fill="#1a1818"/></g><g transform="translate(53.851)"><circle cx="5.274" cy="5.274" r="5.274" fill="#1a1818"/><circle cx="5.274" cy="5.274" r="5.274" transform="translate(0 13.448)" fill="#1a1818"/><circle cx="5.274" cy="5.274" r="5.274" transform="translate(0 26.896)" fill="#1a1818"/></g><g transform="translate(67.314)"><circle cx="5.274" cy="5.274" r="5.274" fill="#1a1818"/><circle cx="5.274" cy="5.274" r="5.274" transform="translate(0 13.448)" fill="#1a1818"/><circle cx="5.274" cy="5.274" r="5.274" transform="translate(0 26.896)" fill="#1a1818"/></g><g transform="translate(80.777)"><circle cx="5.274" cy="5.274" r="5.274" fill="#1a1818"/><circle cx="5.274" cy="5.274" r="5.274" transform="translate(0 13.448)" fill="#1a1818"/><circle cx="5.274" cy="5.274" r="5.274" transform="translate(0 26.896)" fill="#1a1818"/></g></g><g transform="translate(286.408 37.898)"><circle cx="5.274" cy="5.274" r="5.274" fill="#1a1818"/><circle cx="5.274" cy="5.274" r="5.274" transform="translate(0 13.448)" fill="#1a1818"/><circle cx="5.274" cy="5.274" r="5.274" transform="translate(0 26.896)" fill="#1a1818"/><circle cx="5.274" cy="5.274" r="5.274" transform="translate(13.463)" fill="#1a1818"/><circle cx="5.274" cy="5.274" r="5.274" transform="translate(13.463 13.448)" fill="#1a1818"/><circle cx="5.274" cy="5.274" r="5.274" transform="translate(13.463 26.896)" fill="#1a1818"/><circle cx="5.274" cy="5.274" r="5.274" transform="translate(26.926)" fill="#1a1818"/><circle cx="5.274" cy="5.274" r="5.274" transform="translate(26.926 13.448)" fill="#1a1818"/><circle cx="5.274" cy="5.274" r="5.274" transform="translate(26.926 26.896)" fill="#1a1818"/><circle cx="5.274" cy="5.274" r="5.274" transform="translate(40.388)" fill="#1a1818"/><circle cx="5.274" cy="5.274" r="5.274" transform="translate(40.388 13.448)" fill="#1a1818"/><circle cx="5.274" cy="5.274" r="5.274" transform="translate(40.388 26.896)" fill="#1a1818"/><circle cx="5.274" cy="5.274" r="5.274" transform="translate(53.851)" fill="#1a1818"/><circle cx="5.274" cy="5.274" r="5.274" transform="translate(53.851 13.448)" fill="#1a1818"/><circle cx="5.274" cy="5.274" r="5.274" transform="translate(53.851 26.896)" fill="#1a1818"/><circle cx="5.274" cy="5.274" r="5.274" transform="translate(67.314)" fill="#1a1818"/><circle cx="5.274" cy="5.274" r="5.274" transform="translate(67.314 13.448)" fill="#1a1818"/><circle cx="5.274" cy="5.274" r="5.274" transform="translate(80.777 13.448)" fill="#1a1818"/><circle cx="5.274" cy="5.274" r="5.274" transform="translate(67.314 26.896)" fill="#1a1818"/><circle cx="5.274" cy="5.274" r="5.274" transform="translate(80.777)" fill="#1a1818"/><circle cx="5.274" cy="5.274" r="5.274" transform="translate(80.777 26.896)" fill="#1a1818"/><circle cx="5.274" cy="5.274" r="5.274" transform="translate(0 40.344)" fill="#1a1818"/><circle cx="5.274" cy="5.274" r="5.274" transform="translate(13.463 40.344)" fill="#1a1818"/><circle cx="5.274" cy="5.274" r="5.274" transform="translate(26.926 40.344)" fill="#1a1818"/><circle cx="5.274" cy="5.274" r="5.274" transform="translate(40.388 40.344)" fill="#1a1818"/><circle cx="5.274" cy="5.274" r="5.274" transform="translate(53.851 40.344)" fill="#1a1818"/><circle cx="5.274" cy="5.274" r="5.274" transform="translate(67.314 40.344)" fill="#1a1818"/><circle cx="5.274" cy="5.274" r="5.274" transform="translate(80.777 40.344)" fill="#1a1818"/></g><g transform="translate(272.945 102.677)"><circle cx="5.274" cy="5.274" r="5.274" transform="translate(13.463)" fill="#1a1818"/><circle cx="5.274" cy="5.274" r="5.274" transform="translate(13.463 13.448)" fill="#1a1818"/><circle cx="5.274" cy="5.274" r="5.274" transform="translate(13.463 26.896)" fill="#1a1818"/><circle cx="5.274" cy="5.274" r="5.274" transform="translate(26.926)" fill="#1a1818"/><circle cx="5.274" cy="5.274" r="5.274" transform="translate(26.926 13.448)" fill="#1a1818"/><circle cx="5.274" cy="5.274" r="5.274" transform="translate(26.926 26.896)" fill="#1a1818"/><circle cx="5.274" cy="5.274" r="5.274" fill="#1a1818"/><circle cx="5.274" cy="5.274" r="5.274" transform="translate(0 13.448)" fill="#1a1818"/><circle cx="5.274" cy="5.274" r="5.274" transform="translate(0 26.896)" fill="#1a1818"/><circle cx="5.274" cy="5.274" r="5.274" transform="translate(40.388)" fill="#1a1818"/><circle cx="5.274" cy="5.274" r="5.274" transform="translate(40.388 13.448)" fill="#1a1818"/><circle cx="5.274" cy="5.274" r="5.274" transform="translate(40.388 26.896)" fill="#1a1818"/><circle cx="5.274" cy="5.274" r="5.274" transform="translate(53.851)" fill="#1a1818"/><circle cx="5.274" cy="5.274" r="5.274" transform="translate(53.851 13.448)" fill="#1a1818"/><circle cx="5.274" cy="5.274" r="5.274" transform="translate(53.851 26.896)" fill="#1a1818"/><circle cx="5.274" cy="5.274" r="5.274" transform="translate(67.314)" fill="#1a1818"/><circle cx="5.274" cy="5.274" r="5.274" transform="translate(67.314 13.448)" fill="#1a1818"/><circle cx="5.274" cy="5.274" r="5.274" transform="translate(67.314 26.896)" fill="#1a1818"/><circle cx="5.274" cy="5.274" r="5.274" transform="translate(80.777)" fill="#1a1818"/><circle cx="5.274" cy="5.274" r="5.274" transform="translate(80.777 13.448)" fill="#1a1818"/><circle cx="5.274" cy="5.274" r="5.274" transform="translate(80.777 26.896)" fill="#1a1818"/><circle cx="5.274" cy="5.274" r="5.274" transform="translate(94.239)" fill="#1a1818"/><circle cx="5.274" cy="5.274" r="5.274" transform="translate(94.239 13.448)" fill="#1a1818"/><circle cx="5.274" cy="5.274" r="5.274" transform="translate(94.239 26.896)" fill="#1a1818"/></g><g transform="translate(272.945 154.008)"><circle cx="5.274" cy="5.274" r="5.274" transform="translate(13.463)" fill="#1a1818"/><circle cx="5.274" cy="5.274" r="5.274" transform="translate(13.463 13.448)" fill="#1a1818"/><circle cx="5.274" cy="5.274" r="5.274" transform="translate(13.463 26.896)" fill="#1a1818"/><circle cx="5.274" cy="5.274" r="5.274" transform="translate(26.926)" fill="#1a1818"/><circle cx="5.274" cy="5.274" r="5.274" transform="translate(26.926 13.448)" fill="#1a1818"/><circle cx="5.274" cy="5.274" r="5.274" transform="translate(26.926 26.896)" fill="#1a1818"/><circle cx="5.274" cy="5.274" r="5.274" fill="#1a1818"/><circle cx="5.274" cy="5.274" r="5.274" transform="translate(0 13.448)" fill="#1a1818"/><circle cx="5.274" cy="5.274" r="5.274" transform="translate(0 26.896)" fill="#1a1818"/><circle cx="5.274" cy="5.274" r="5.274" transform="translate(40.388)" fill="#1a1818"/><circle cx="5.274" cy="5.274" r="5.274" transform="translate(40.388 13.448)" fill="#1a1818"/><circle cx="5.274" cy="5.274" r="5.274" transform="translate(40.388 26.896)" fill="#1a1818"/><circle cx="5.274" cy="5.274" r="5.274" transform="translate(53.851)" fill="#1a1818"/><circle cx="5.274" cy="5.274" r="5.274" transform="translate(53.851 13.448)" fill="#1a1818"/><circle cx="5.274" cy="5.274" r="5.274" transform="translate(53.851 26.896)" fill="#1a1818"/><circle cx="5.274" cy="5.274" r="5.274" transform="translate(67.314)" fill="#1a1818"/><circle cx="5.274" cy="5.274" r="5.274" transform="translate(67.314 13.448)" fill="#1a1818"/><circle cx="5.274" cy="5.274" r="5.274" transform="translate(67.314 26.896)" fill="#1a1818"/><circle cx="5.274" cy="5.274" r="5.274" transform="translate(80.777)" fill="#1a1818"/><circle cx="5.274" cy="5.274" r="5.274" transform="translate(80.777 13.448)" fill="#1a1818"/><circle cx="5.274" cy="5.274" r="5.274" transform="translate(80.777 26.896)" fill="#1a1818"/><circle cx="5.274" cy="5.274" r="5.274" transform="translate(94.239)" fill="#1a1818"/><circle cx="5.274" cy="5.274" r="5.274" transform="translate(94.239 13.448)" fill="#1a1818"/><circle cx="5.274" cy="5.274" r="5.274" transform="translate(94.239 26.896)" fill="#1a1818"/></g><g transform="translate(0 102.677)"><circle cx="5.274" cy="5.274" r="5.274" fill="#1a1818"/><circle cx="5.274" cy="5.274" r="5.274" transform="translate(0 13.448)" fill="#1a1818"/><circle cx="5.274" cy="5.274" r="5.274" transform="translate(0 26.896)" fill="#1a1818"/><g transform="translate(13.463)"><circle cx="5.274" cy="5.274" r="5.274" fill="#1a1818"/><circle cx="5.274" cy="5.274" r="5.274" transform="translate(0 13.448)" fill="#1a1818"/><circle cx="5.274" cy="5.274" r="5.274" transform="translate(0 26.896)" fill="#1a1818"/></g><g transform="translate(26.926)"><circle cx="5.274" cy="5.274" r="5.274" fill="#1a1818"/><circle cx="5.274" cy="5.274" r="5.274" transform="translate(0 13.448)" fill="#1a1818"/><circle cx="5.274" cy="5.274" r="5.274" transform="translate(0 26.896)" fill="#1a1818"/></g><g transform="translate(40.388)"><circle cx="5.274" cy="5.274" r="5.274" fill="#1a1818"/><circle cx="5.274" cy="5.274" r="5.274" transform="translate(0 13.448)" fill="#1a1818"/><circle cx="5.274" cy="5.274" r="5.274" transform="translate(0 26.896)" fill="#1a1818"/></g><g transform="translate(53.851)"><circle cx="5.274" cy="5.274" r="5.274" fill="#1a1818"/><circle cx="5.274" cy="5.274" r="5.274" transform="translate(0 13.448)" fill="#1a1818"/><circle cx="5.274" cy="5.274" r="5.274" transform="translate(0 26.896)" fill="#1a1818"/></g><g transform="translate(67.314)"><circle cx="5.274" cy="5.274" r="5.274" fill="#1a1818"/><circle cx="5.274" cy="5.274" r="5.274" transform="translate(0 13.448)" fill="#1a1818"/><circle cx="5.274" cy="5.274" r="5.274" transform="translate(0 26.896)" fill="#1a1818"/></g><g transform="translate(80.777)"><circle cx="5.274" cy="5.274" r="5.274" fill="#1a1818"/><circle cx="5.274" cy="5.274" r="5.274" transform="translate(0 13.448)" fill="#1a1818"/><circle cx="5.274" cy="5.274" r="5.274" transform="translate(0 26.896)" fill="#1a1818"/></g><g transform="translate(94.239)"><circle cx="5.274" cy="5.274" r="5.274" fill="#1a1818"/><circle cx="5.274" cy="5.274" r="5.274" transform="translate(0 13.448)" fill="#1a1818"/><circle cx="5.274" cy="5.274" r="5.274" transform="translate(0 26.896)" fill="#1a1818"/></g></g><g transform="translate(0 154.008)"><circle cx="5.274" cy="5.274" r="5.274" fill="#1a1818"/><circle cx="5.274" cy="5.274" r="5.274" transform="translate(0 13.448)" fill="#1a1818"/><circle cx="5.274" cy="5.274" r="5.274" transform="translate(0 26.896)" fill="#1a1818"/><g transform="translate(13.463)"><circle cx="5.274" cy="5.274" r="5.274" fill="#1a1818"/><circle cx="5.274" cy="5.274" r="5.274" transform="translate(0 13.448)" fill="#1a1818"/><circle cx="5.274" cy="5.274" r="5.274" transform="translate(0 26.896)" fill="#1a1818"/></g><g transform="translate(26.926)"><circle cx="5.274" cy="5.274" r="5.274" fill="#1a1818"/><circle cx="5.274" cy="5.274" r="5.274" transform="translate(0 13.448)" fill="#1a1818"/><circle cx="5.274" cy="5.274" r="5.274" transform="translate(0 26.896)" fill="#1a1818"/></g><g transform="translate(40.388)"><circle cx="5.274" cy="5.274" r="5.274" fill="#1a1818"/><circle cx="5.274" cy="5.274" r="5.274" transform="translate(0 13.448)" fill="#1a1818"/><circle cx="5.274" cy="5.274" r="5.274" transform="translate(0 26.896)" fill="#1a1818"/></g><g transform="translate(53.851)"><circle cx="5.274" cy="5.274" r="5.274" fill="#1a1818"/><circle cx="5.274" cy="5.274" r="5.274" transform="translate(0 13.448)" fill="#1a1818"/><circle cx="5.274" cy="5.274" r="5.274" transform="translate(0 26.896)" fill="#1a1818"/></g><g transform="translate(67.314)"><circle cx="5.274" cy="5.274" r="5.274" fill="#1a1818"/><circle cx="5.274" cy="5.274" r="5.274" transform="translate(0 13.448)" fill="#1a1818"/><circle cx="5.274" cy="5.274" r="5.274" transform="translate(0 26.896)" fill="#1a1818"/></g><g transform="translate(80.777)"><circle cx="5.274" cy="5.274" r="5.274" fill="#1a1818"/><circle cx="5.274" cy="5.274" r="5.274" transform="translate(0 13.448)" fill="#1a1818"/><circle cx="5.274" cy="5.274" r="5.274" transform="translate(0 26.896)" fill="#1a1818"/></g><g transform="translate(94.239)"><circle cx="5.274" cy="5.274" r="5.274" fill="#1a1818"/><circle cx="5.274" cy="5.274" r="5.274" transform="translate(0 13.448)" fill="#1a1818"/><circle cx="5.274" cy="5.274" r="5.274" transform="translate(0 26.896)" fill="#1a1818"/></g></g></g></g></svg>