<svg xmlns="http://www.w3.org/2000/svg" width="161.451" height="81.83" viewBox="0 0 161.451 81.83">
  <g id="snemovna_logo" data-name="snemovna logo" transform="translate(-602 -466)">
    <g id="Group_138" data-name="Group 138" transform="translate(602 466)">
      <g id="Group_97" data-name="Group 97" transform="translate(0 0.006)">
        <g id="Group_90" data-name="Group 90">
          <circle id="Ellipse_69" data-name="Ellipse 69" cx="2.254" cy="2.254" r="2.254" fill="#fff"/>
          <circle id="Ellipse_70" data-name="Ellipse 70" cx="2.254" cy="2.254" r="2.254" transform="translate(0 5.748)" fill="#fff"/>
          <circle id="Ellipse_71" data-name="Ellipse 71" cx="2.254" cy="2.254" r="2.254" transform="translate(0 11.496)" fill="#fff"/>
        </g>
        <g id="Group_91" data-name="Group 91" transform="translate(5.754)">
          <circle id="Ellipse_72" data-name="Ellipse 72" cx="2.254" cy="2.254" r="2.254" fill="#fff"/>
          <circle id="Ellipse_73" data-name="Ellipse 73" cx="2.254" cy="2.254" r="2.254" transform="translate(0 5.748)" fill="#fff"/>
          <circle id="Ellipse_74" data-name="Ellipse 74" cx="2.254" cy="2.254" r="2.254" transform="translate(0 11.496)" fill="#fff"/>
        </g>
        <g id="Group_92" data-name="Group 92" transform="translate(11.509)">
          <circle id="Ellipse_75" data-name="Ellipse 75" cx="2.254" cy="2.254" r="2.254" fill="#fff"/>
          <circle id="Ellipse_76" data-name="Ellipse 76" cx="2.254" cy="2.254" r="2.254" transform="translate(0 5.748)" fill="#fff"/>
          <circle id="Ellipse_77" data-name="Ellipse 77" cx="2.254" cy="2.254" r="2.254" transform="translate(0 11.496)" fill="#fff"/>
        </g>
        <g id="Group_93" data-name="Group 93" transform="translate(17.263)">
          <circle id="Ellipse_78" data-name="Ellipse 78" cx="2.254" cy="2.254" r="2.254" fill="#fff"/>
          <circle id="Ellipse_79" data-name="Ellipse 79" cx="2.254" cy="2.254" r="2.254" transform="translate(0 5.748)" fill="#fff"/>
          <circle id="Ellipse_80" data-name="Ellipse 80" cx="2.254" cy="2.254" r="2.254" transform="translate(0 11.496)" fill="#fff"/>
        </g>
        <g id="Group_94" data-name="Group 94" transform="translate(23.017)">
          <circle id="Ellipse_81" data-name="Ellipse 81" cx="2.254" cy="2.254" r="2.254" fill="#fff"/>
          <circle id="Ellipse_82" data-name="Ellipse 82" cx="2.254" cy="2.254" r="2.254" transform="translate(0 5.748)" fill="#fff"/>
          <circle id="Ellipse_83" data-name="Ellipse 83" cx="2.254" cy="2.254" r="2.254" transform="translate(0 11.496)" fill="#fff"/>
        </g>
        <g id="Group_95" data-name="Group 95" transform="translate(28.771)">
          <circle id="Ellipse_84" data-name="Ellipse 84" cx="2.254" cy="2.254" r="2.254" fill="#fff"/>
          <circle id="Ellipse_85" data-name="Ellipse 85" cx="2.254" cy="2.254" r="2.254" transform="translate(0 5.748)" fill="#fff"/>
          <circle id="Ellipse_86" data-name="Ellipse 86" cx="2.254" cy="2.254" r="2.254" transform="translate(0 11.496)" fill="#fff"/>
        </g>
        <g id="Group_96" data-name="Group 96" transform="translate(34.526)">
          <circle id="Ellipse_87" data-name="Ellipse 87" cx="2.254" cy="2.254" r="2.254" fill="#fff"/>
          <circle id="Ellipse_88" data-name="Ellipse 88" cx="2.254" cy="2.254" r="2.254" transform="translate(0 5.748)" fill="#fff"/>
          <circle id="Ellipse_89" data-name="Ellipse 89" cx="2.254" cy="2.254" r="2.254" transform="translate(0 11.496)" fill="#fff"/>
        </g>
      </g>
      <g id="Group_105" data-name="Group 105" transform="translate(122.417 0.006)">
        <g id="Group_98" data-name="Group 98">
          <circle id="Ellipse_90" data-name="Ellipse 90" cx="2.254" cy="2.254" r="2.254" fill="#fff"/>
          <circle id="Ellipse_91" data-name="Ellipse 91" cx="2.254" cy="2.254" r="2.254" transform="translate(0 5.748)" fill="#fff"/>
        </g>
        <g id="Group_99" data-name="Group 99" transform="translate(5.754)">
          <circle id="Ellipse_92" data-name="Ellipse 92" cx="2.254" cy="2.254" r="2.254" fill="#fff"/>
          <circle id="Ellipse_93" data-name="Ellipse 93" cx="2.254" cy="2.254" r="2.254" transform="translate(0 5.748)" fill="#fff"/>
        </g>
        <g id="Group_100" data-name="Group 100" transform="translate(11.509)">
          <circle id="Ellipse_94" data-name="Ellipse 94" cx="2.254" cy="2.254" r="2.254" fill="#fff"/>
          <circle id="Ellipse_95" data-name="Ellipse 95" cx="2.254" cy="2.254" r="2.254" transform="translate(0 5.748)" fill="#fff"/>
        </g>
        <g id="Group_101" data-name="Group 101" transform="translate(17.263)">
          <circle id="Ellipse_96" data-name="Ellipse 96" cx="2.254" cy="2.254" r="2.254" fill="#fff"/>
          <circle id="Ellipse_97" data-name="Ellipse 97" cx="2.254" cy="2.254" r="2.254" transform="translate(0 5.748)" fill="#fff"/>
        </g>
        <g id="Group_102" data-name="Group 102" transform="translate(23.017)">
          <circle id="Ellipse_98" data-name="Ellipse 98" cx="2.254" cy="2.254" r="2.254" fill="#fff"/>
          <circle id="Ellipse_99" data-name="Ellipse 99" cx="2.254" cy="2.254" r="2.254" transform="translate(0 5.748)" fill="#fff"/>
        </g>
        <g id="Group_103" data-name="Group 103" transform="translate(28.771)">
          <circle id="Ellipse_100" data-name="Ellipse 100" cx="2.254" cy="2.254" r="2.254" fill="#fff"/>
          <circle id="Ellipse_101" data-name="Ellipse 101" cx="2.254" cy="2.254" r="2.254" transform="translate(0 5.748)" fill="#fff"/>
        </g>
        <g id="Group_104" data-name="Group 104" transform="translate(34.526)">
          <circle id="Ellipse_102" data-name="Ellipse 102" cx="2.254" cy="2.254" r="2.254" fill="#fff"/>
          <circle id="Ellipse_103" data-name="Ellipse 103" cx="2.254" cy="2.254" r="2.254" transform="translate(0 5.748)" fill="#fff"/>
        </g>
      </g>
      <g id="Group_106" data-name="Group 106" transform="translate(45.345 0)">
        <circle id="Ellipse_104" data-name="Ellipse 104" cx="2.254" cy="2.254" r="2.254" transform="translate(11.496)" fill="#fff"/>
        <circle id="Ellipse_105" data-name="Ellipse 105" cx="2.254" cy="2.254" r="2.254" transform="translate(5.748)" fill="#fff"/>
        <circle id="Ellipse_106" data-name="Ellipse 106" cx="2.254" cy="2.254" r="2.254" transform="translate(0)" fill="#fff"/>
        <circle id="Ellipse_107" data-name="Ellipse 107" cx="2.254" cy="2.254" r="2.254" transform="translate(11.496 5.754)" fill="#fff"/>
        <circle id="Ellipse_108" data-name="Ellipse 108" cx="2.254" cy="2.254" r="2.254" transform="translate(5.748 5.754)" fill="#fff"/>
        <circle id="Ellipse_109" data-name="Ellipse 109" cx="2.254" cy="2.254" r="2.254" transform="translate(0 5.754)" fill="#fff"/>
        <circle id="Ellipse_110" data-name="Ellipse 110" cx="2.254" cy="2.254" r="2.254" transform="translate(11.496 11.509)" fill="#fff"/>
        <circle id="Ellipse_111" data-name="Ellipse 111" cx="2.254" cy="2.254" r="2.254" transform="translate(5.748 11.509)" fill="#fff"/>
        <circle id="Ellipse_112" data-name="Ellipse 112" cx="2.254" cy="2.254" r="2.254" transform="translate(0 11.509)" fill="#fff"/>
        <circle id="Ellipse_113" data-name="Ellipse 113" cx="2.254" cy="2.254" r="2.254" transform="translate(11.496 17.263)" fill="#fff"/>
        <circle id="Ellipse_114" data-name="Ellipse 114" cx="2.254" cy="2.254" r="2.254" transform="translate(5.748 17.263)" fill="#fff"/>
        <circle id="Ellipse_115" data-name="Ellipse 115" cx="2.254" cy="2.254" r="2.254" transform="translate(0 17.263)" fill="#fff"/>
        <circle id="Ellipse_116" data-name="Ellipse 116" cx="2.254" cy="2.254" r="2.254" transform="translate(11.496 23.017)" fill="#fff"/>
        <circle id="Ellipse_117" data-name="Ellipse 117" cx="2.254" cy="2.254" r="2.254" transform="translate(5.748 23.017)" fill="#fff"/>
        <circle id="Ellipse_118" data-name="Ellipse 118" cx="2.254" cy="2.254" r="2.254" transform="translate(17.244)" fill="#fff"/>
        <circle id="Ellipse_119" data-name="Ellipse 119" cx="2.254" cy="2.254" r="2.254" transform="translate(17.244 5.754)" fill="#fff"/>
        <circle id="Ellipse_120" data-name="Ellipse 120" cx="2.254" cy="2.254" r="2.254" transform="translate(17.244 11.509)" fill="#fff"/>
        <circle id="Ellipse_121" data-name="Ellipse 121" cx="2.254" cy="2.254" r="2.254" transform="translate(17.244 17.263)" fill="#fff"/>
        <circle id="Ellipse_122" data-name="Ellipse 122" cx="2.254" cy="2.254" r="2.254" transform="translate(17.244 23.017)" fill="#fff"/>
        <circle id="Ellipse_123" data-name="Ellipse 123" cx="2.254" cy="2.254" r="2.254" transform="translate(0 23.017)" fill="#fff"/>
      </g>
      <g id="Group_107" data-name="Group 107" transform="translate(72.958 0)">
        <circle id="Ellipse_124" data-name="Ellipse 124" cx="2.254" cy="2.254" r="2.254" transform="translate(11.496)" fill="#fff"/>
        <circle id="Ellipse_125" data-name="Ellipse 125" cx="2.254" cy="2.254" r="2.254" transform="translate(5.748)" fill="#fff"/>
        <circle id="Ellipse_126" data-name="Ellipse 126" cx="2.254" cy="2.254" r="2.254" transform="translate(0)" fill="#fff"/>
        <circle id="Ellipse_127" data-name="Ellipse 127" cx="2.254" cy="2.254" r="2.254" transform="translate(11.496 5.754)" fill="#fff"/>
        <circle id="Ellipse_128" data-name="Ellipse 128" cx="2.254" cy="2.254" r="2.254" transform="translate(5.748 5.754)" fill="#fff"/>
        <circle id="Ellipse_129" data-name="Ellipse 129" cx="2.254" cy="2.254" r="2.254" transform="translate(0 5.754)" fill="#fff"/>
        <circle id="Ellipse_130" data-name="Ellipse 130" cx="2.254" cy="2.254" r="2.254" transform="translate(11.496 11.509)" fill="#fff"/>
        <circle id="Ellipse_131" data-name="Ellipse 131" cx="2.254" cy="2.254" r="2.254" transform="translate(5.748 11.509)" fill="#fff"/>
        <circle id="Ellipse_132" data-name="Ellipse 132" cx="2.254" cy="2.254" r="2.254" transform="translate(0 11.509)" fill="#fff"/>
        <circle id="Ellipse_133" data-name="Ellipse 133" cx="2.254" cy="2.254" r="2.254" transform="translate(11.496 17.263)" fill="#fff"/>
        <circle id="Ellipse_134" data-name="Ellipse 134" cx="2.254" cy="2.254" r="2.254" transform="translate(5.748 17.263)" fill="#fff"/>
        <circle id="Ellipse_135" data-name="Ellipse 135" cx="2.254" cy="2.254" r="2.254" transform="translate(0 17.263)" fill="#fff"/>
        <circle id="Ellipse_136" data-name="Ellipse 136" cx="2.254" cy="2.254" r="2.254" transform="translate(11.496 23.017)" fill="#fff"/>
        <circle id="Ellipse_137" data-name="Ellipse 137" cx="2.254" cy="2.254" r="2.254" transform="translate(5.748 23.017)" fill="#fff"/>
        <circle id="Ellipse_138" data-name="Ellipse 138" cx="2.254" cy="2.254" r="2.254" transform="translate(0 23.017)" fill="#fff"/>
      </g>
      <g id="Group_108" data-name="Group 108" transform="translate(95.217 0)">
        <circle id="Ellipse_139" data-name="Ellipse 139" cx="2.254" cy="2.254" r="2.254" transform="translate(11.496)" fill="#fff"/>
        <circle id="Ellipse_140" data-name="Ellipse 140" cx="2.254" cy="2.254" r="2.254" transform="translate(5.748)" fill="#fff"/>
        <circle id="Ellipse_141" data-name="Ellipse 141" cx="2.254" cy="2.254" r="2.254" transform="translate(0)" fill="#fff"/>
        <circle id="Ellipse_142" data-name="Ellipse 142" cx="2.254" cy="2.254" r="2.254" transform="translate(11.496 5.754)" fill="#fff"/>
        <circle id="Ellipse_143" data-name="Ellipse 143" cx="2.254" cy="2.254" r="2.254" transform="translate(5.748 5.754)" fill="#fff"/>
        <circle id="Ellipse_144" data-name="Ellipse 144" cx="2.254" cy="2.254" r="2.254" transform="translate(0 5.754)" fill="#fff"/>
        <circle id="Ellipse_145" data-name="Ellipse 145" cx="2.254" cy="2.254" r="2.254" transform="translate(11.496 11.509)" fill="#fff"/>
        <circle id="Ellipse_146" data-name="Ellipse 146" cx="2.254" cy="2.254" r="2.254" transform="translate(5.748 11.509)" fill="#fff"/>
        <circle id="Ellipse_147" data-name="Ellipse 147" cx="2.254" cy="2.254" r="2.254" transform="translate(0 11.509)" fill="#fff"/>
        <circle id="Ellipse_148" data-name="Ellipse 148" cx="2.254" cy="2.254" r="2.254" transform="translate(11.496 17.263)" fill="#fff"/>
        <circle id="Ellipse_149" data-name="Ellipse 149" cx="2.254" cy="2.254" r="2.254" transform="translate(5.748 17.263)" fill="#fff"/>
        <circle id="Ellipse_150" data-name="Ellipse 150" cx="2.254" cy="2.254" r="2.254" transform="translate(0 17.263)" fill="#fff"/>
        <circle id="Ellipse_151" data-name="Ellipse 151" cx="2.254" cy="2.254" r="2.254" transform="translate(11.496 23.017)" fill="#fff"/>
        <circle id="Ellipse_152" data-name="Ellipse 152" cx="2.254" cy="2.254" r="2.254" transform="translate(5.748 23.017)" fill="#fff"/>
        <circle id="Ellipse_153" data-name="Ellipse 153" cx="2.254" cy="2.254" r="2.254" transform="translate(17.244)" fill="#fff"/>
        <circle id="Ellipse_154" data-name="Ellipse 154" cx="2.254" cy="2.254" r="2.254" transform="translate(17.244 5.754)" fill="#fff"/>
        <circle id="Ellipse_155" data-name="Ellipse 155" cx="2.254" cy="2.254" r="2.254" transform="translate(17.244 11.509)" fill="#fff"/>
        <circle id="Ellipse_156" data-name="Ellipse 156" cx="2.254" cy="2.254" r="2.254" transform="translate(17.244 17.263)" fill="#fff"/>
        <circle id="Ellipse_157" data-name="Ellipse 157" cx="2.254" cy="2.254" r="2.254" transform="translate(17.244 23.017)" fill="#fff"/>
        <circle id="Ellipse_158" data-name="Ellipse 158" cx="2.254" cy="2.254" r="2.254" transform="translate(0 23.017)" fill="#fff"/>
      </g>
      <g id="Group_116" data-name="Group 116" transform="translate(0 21.946)">
        <g id="Group_109" data-name="Group 109">
          <circle id="Ellipse_159" data-name="Ellipse 159" cx="2.254" cy="2.254" r="2.254" fill="#fff"/>
          <circle id="Ellipse_160" data-name="Ellipse 160" cx="2.254" cy="2.254" r="2.254" transform="translate(0 5.748)" fill="#fff"/>
          <circle id="Ellipse_161" data-name="Ellipse 161" cx="2.254" cy="2.254" r="2.254" transform="translate(0 11.496)" fill="#fff"/>
        </g>
        <g id="Group_110" data-name="Group 110" transform="translate(5.754)">
          <circle id="Ellipse_162" data-name="Ellipse 162" cx="2.254" cy="2.254" r="2.254" fill="#fff"/>
          <circle id="Ellipse_163" data-name="Ellipse 163" cx="2.254" cy="2.254" r="2.254" transform="translate(0 5.748)" fill="#fff"/>
          <circle id="Ellipse_164" data-name="Ellipse 164" cx="2.254" cy="2.254" r="2.254" transform="translate(0 11.496)" fill="#fff"/>
        </g>
        <g id="Group_111" data-name="Group 111" transform="translate(11.509)">
          <circle id="Ellipse_165" data-name="Ellipse 165" cx="2.254" cy="2.254" r="2.254" fill="#fff"/>
          <circle id="Ellipse_166" data-name="Ellipse 166" cx="2.254" cy="2.254" r="2.254" transform="translate(0 5.748)" fill="#fff"/>
          <circle id="Ellipse_167" data-name="Ellipse 167" cx="2.254" cy="2.254" r="2.254" transform="translate(0 11.496)" fill="#fff"/>
        </g>
        <g id="Group_112" data-name="Group 112" transform="translate(17.263)">
          <circle id="Ellipse_168" data-name="Ellipse 168" cx="2.254" cy="2.254" r="2.254" fill="#fff"/>
          <circle id="Ellipse_169" data-name="Ellipse 169" cx="2.254" cy="2.254" r="2.254" transform="translate(0 5.748)" fill="#fff"/>
          <circle id="Ellipse_170" data-name="Ellipse 170" cx="2.254" cy="2.254" r="2.254" transform="translate(0 11.496)" fill="#fff"/>
        </g>
        <g id="Group_113" data-name="Group 113" transform="translate(23.017)">
          <circle id="Ellipse_171" data-name="Ellipse 171" cx="2.254" cy="2.254" r="2.254" fill="#fff"/>
          <circle id="Ellipse_172" data-name="Ellipse 172" cx="2.254" cy="2.254" r="2.254" transform="translate(0 5.748)" fill="#fff"/>
          <circle id="Ellipse_173" data-name="Ellipse 173" cx="2.254" cy="2.254" r="2.254" transform="translate(0 11.496)" fill="#fff"/>
        </g>
        <g id="Group_114" data-name="Group 114" transform="translate(28.771)">
          <circle id="Ellipse_174" data-name="Ellipse 174" cx="2.254" cy="2.254" r="2.254" fill="#fff"/>
          <circle id="Ellipse_175" data-name="Ellipse 175" cx="2.254" cy="2.254" r="2.254" transform="translate(0 5.748)" fill="#fff"/>
          <circle id="Ellipse_176" data-name="Ellipse 176" cx="2.254" cy="2.254" r="2.254" transform="translate(0 11.496)" fill="#fff"/>
        </g>
        <g id="Group_115" data-name="Group 115" transform="translate(34.526)">
          <circle id="Ellipse_177" data-name="Ellipse 177" cx="2.254" cy="2.254" r="2.254" fill="#fff"/>
          <circle id="Ellipse_178" data-name="Ellipse 178" cx="2.254" cy="2.254" r="2.254" transform="translate(0 5.748)" fill="#fff"/>
          <circle id="Ellipse_179" data-name="Ellipse 179" cx="2.254" cy="2.254" r="2.254" transform="translate(0 11.496)" fill="#fff"/>
        </g>
      </g>
      <g id="Group_117" data-name="Group 117" transform="translate(122.417 16.198)">
        <circle id="Ellipse_180" data-name="Ellipse 180" cx="2.254" cy="2.254" r="2.254" fill="#fff"/>
        <circle id="Ellipse_181" data-name="Ellipse 181" cx="2.254" cy="2.254" r="2.254" transform="translate(0 5.748)" fill="#fff"/>
        <circle id="Ellipse_182" data-name="Ellipse 182" cx="2.254" cy="2.254" r="2.254" transform="translate(0 11.496)" fill="#fff"/>
        <circle id="Ellipse_183" data-name="Ellipse 183" cx="2.254" cy="2.254" r="2.254" transform="translate(5.754)" fill="#fff"/>
        <circle id="Ellipse_184" data-name="Ellipse 184" cx="2.254" cy="2.254" r="2.254" transform="translate(5.754 5.748)" fill="#fff"/>
        <circle id="Ellipse_185" data-name="Ellipse 185" cx="2.254" cy="2.254" r="2.254" transform="translate(5.754 11.496)" fill="#fff"/>
        <circle id="Ellipse_186" data-name="Ellipse 186" cx="2.254" cy="2.254" r="2.254" transform="translate(11.509)" fill="#fff"/>
        <circle id="Ellipse_187" data-name="Ellipse 187" cx="2.254" cy="2.254" r="2.254" transform="translate(11.509 5.748)" fill="#fff"/>
        <circle id="Ellipse_188" data-name="Ellipse 188" cx="2.254" cy="2.254" r="2.254" transform="translate(11.509 11.496)" fill="#fff"/>
        <circle id="Ellipse_189" data-name="Ellipse 189" cx="2.254" cy="2.254" r="2.254" transform="translate(17.263)" fill="#fff"/>
        <circle id="Ellipse_190" data-name="Ellipse 190" cx="2.254" cy="2.254" r="2.254" transform="translate(17.263 5.748)" fill="#fff"/>
        <circle id="Ellipse_191" data-name="Ellipse 191" cx="2.254" cy="2.254" r="2.254" transform="translate(17.263 11.496)" fill="#fff"/>
        <circle id="Ellipse_192" data-name="Ellipse 192" cx="2.254" cy="2.254" r="2.254" transform="translate(23.017)" fill="#fff"/>
        <circle id="Ellipse_193" data-name="Ellipse 193" cx="2.254" cy="2.254" r="2.254" transform="translate(23.017 5.748)" fill="#fff"/>
        <circle id="Ellipse_194" data-name="Ellipse 194" cx="2.254" cy="2.254" r="2.254" transform="translate(23.017 11.496)" fill="#fff"/>
        <circle id="Ellipse_195" data-name="Ellipse 195" cx="2.254" cy="2.254" r="2.254" transform="translate(28.771)" fill="#fff"/>
        <circle id="Ellipse_196" data-name="Ellipse 196" cx="2.254" cy="2.254" r="2.254" transform="translate(28.771 5.748)" fill="#fff"/>
        <circle id="Ellipse_197" data-name="Ellipse 197" cx="2.254" cy="2.254" r="2.254" transform="translate(34.526 5.748)" fill="#fff"/>
        <circle id="Ellipse_198" data-name="Ellipse 198" cx="2.254" cy="2.254" r="2.254" transform="translate(28.771 11.496)" fill="#fff"/>
        <circle id="Ellipse_199" data-name="Ellipse 199" cx="2.254" cy="2.254" r="2.254" transform="translate(34.526)" fill="#fff"/>
        <circle id="Ellipse_200" data-name="Ellipse 200" cx="2.254" cy="2.254" r="2.254" transform="translate(34.526 11.496)" fill="#fff"/>
        <circle id="Ellipse_201" data-name="Ellipse 201" cx="2.254" cy="2.254" r="2.254" transform="translate(0 17.244)" fill="#fff"/>
        <circle id="Ellipse_202" data-name="Ellipse 202" cx="2.254" cy="2.254" r="2.254" transform="translate(5.754 17.244)" fill="#fff"/>
        <circle id="Ellipse_203" data-name="Ellipse 203" cx="2.254" cy="2.254" r="2.254" transform="translate(11.509 17.244)" fill="#fff"/>
        <circle id="Ellipse_204" data-name="Ellipse 204" cx="2.254" cy="2.254" r="2.254" transform="translate(17.263 17.244)" fill="#fff"/>
        <circle id="Ellipse_205" data-name="Ellipse 205" cx="2.254" cy="2.254" r="2.254" transform="translate(23.017 17.244)" fill="#fff"/>
        <circle id="Ellipse_206" data-name="Ellipse 206" cx="2.254" cy="2.254" r="2.254" transform="translate(28.771 17.244)" fill="#fff"/>
        <circle id="Ellipse_207" data-name="Ellipse 207" cx="2.254" cy="2.254" r="2.254" transform="translate(34.526 17.244)" fill="#fff"/>
      </g>
      <g id="Group_118" data-name="Group 118" transform="translate(116.662 43.886)">
        <circle id="Ellipse_208" data-name="Ellipse 208" cx="2.254" cy="2.254" r="2.254" transform="translate(5.754)" fill="#fff"/>
        <circle id="Ellipse_209" data-name="Ellipse 209" cx="2.254" cy="2.254" r="2.254" transform="translate(5.754 5.748)" fill="#fff"/>
        <circle id="Ellipse_210" data-name="Ellipse 210" cx="2.254" cy="2.254" r="2.254" transform="translate(5.754 11.496)" fill="#fff"/>
        <circle id="Ellipse_211" data-name="Ellipse 211" cx="2.254" cy="2.254" r="2.254" transform="translate(11.509)" fill="#fff"/>
        <circle id="Ellipse_212" data-name="Ellipse 212" cx="2.254" cy="2.254" r="2.254" transform="translate(11.509 5.748)" fill="#fff"/>
        <circle id="Ellipse_213" data-name="Ellipse 213" cx="2.254" cy="2.254" r="2.254" transform="translate(11.509 11.496)" fill="#fff"/>
        <circle id="Ellipse_214" data-name="Ellipse 214" cx="2.254" cy="2.254" r="2.254" fill="#fff"/>
        <circle id="Ellipse_215" data-name="Ellipse 215" cx="2.254" cy="2.254" r="2.254" transform="translate(0 5.748)" fill="#fff"/>
        <circle id="Ellipse_216" data-name="Ellipse 216" cx="2.254" cy="2.254" r="2.254" transform="translate(0 11.496)" fill="#fff"/>
        <circle id="Ellipse_217" data-name="Ellipse 217" cx="2.254" cy="2.254" r="2.254" transform="translate(17.263)" fill="#fff"/>
        <circle id="Ellipse_218" data-name="Ellipse 218" cx="2.254" cy="2.254" r="2.254" transform="translate(17.263 5.748)" fill="#fff"/>
        <circle id="Ellipse_219" data-name="Ellipse 219" cx="2.254" cy="2.254" r="2.254" transform="translate(17.263 11.496)" fill="#fff"/>
        <circle id="Ellipse_220" data-name="Ellipse 220" cx="2.254" cy="2.254" r="2.254" transform="translate(23.017)" fill="#fff"/>
        <circle id="Ellipse_221" data-name="Ellipse 221" cx="2.254" cy="2.254" r="2.254" transform="translate(23.017 5.748)" fill="#fff"/>
        <circle id="Ellipse_222" data-name="Ellipse 222" cx="2.254" cy="2.254" r="2.254" transform="translate(23.017 11.496)" fill="#fff"/>
        <circle id="Ellipse_223" data-name="Ellipse 223" cx="2.254" cy="2.254" r="2.254" transform="translate(28.771)" fill="#fff"/>
        <circle id="Ellipse_224" data-name="Ellipse 224" cx="2.254" cy="2.254" r="2.254" transform="translate(28.771 5.748)" fill="#fff"/>
        <circle id="Ellipse_225" data-name="Ellipse 225" cx="2.254" cy="2.254" r="2.254" transform="translate(28.771 11.496)" fill="#fff"/>
        <circle id="Ellipse_226" data-name="Ellipse 226" cx="2.254" cy="2.254" r="2.254" transform="translate(34.526)" fill="#fff"/>
        <circle id="Ellipse_227" data-name="Ellipse 227" cx="2.254" cy="2.254" r="2.254" transform="translate(34.526 5.748)" fill="#fff"/>
        <circle id="Ellipse_228" data-name="Ellipse 228" cx="2.254" cy="2.254" r="2.254" transform="translate(34.526 11.496)" fill="#fff"/>
        <circle id="Ellipse_229" data-name="Ellipse 229" cx="2.254" cy="2.254" r="2.254" transform="translate(40.28)" fill="#fff"/>
        <circle id="Ellipse_230" data-name="Ellipse 230" cx="2.254" cy="2.254" r="2.254" transform="translate(40.28 5.748)" fill="#fff"/>
        <circle id="Ellipse_231" data-name="Ellipse 231" cx="2.254" cy="2.254" r="2.254" transform="translate(40.28 11.496)" fill="#fff"/>
      </g>
      <g id="Group_119" data-name="Group 119" transform="translate(116.662 65.826)">
        <circle id="Ellipse_232" data-name="Ellipse 232" cx="2.254" cy="2.254" r="2.254" transform="translate(5.754)" fill="#fff"/>
        <circle id="Ellipse_233" data-name="Ellipse 233" cx="2.254" cy="2.254" r="2.254" transform="translate(5.754 5.748)" fill="#fff"/>
        <circle id="Ellipse_234" data-name="Ellipse 234" cx="2.254" cy="2.254" r="2.254" transform="translate(5.754 11.496)" fill="#fff"/>
        <circle id="Ellipse_235" data-name="Ellipse 235" cx="2.254" cy="2.254" r="2.254" transform="translate(11.509)" fill="#fff"/>
        <circle id="Ellipse_236" data-name="Ellipse 236" cx="2.254" cy="2.254" r="2.254" transform="translate(11.509 5.748)" fill="#fff"/>
        <circle id="Ellipse_237" data-name="Ellipse 237" cx="2.254" cy="2.254" r="2.254" transform="translate(11.509 11.496)" fill="#fff"/>
        <circle id="Ellipse_238" data-name="Ellipse 238" cx="2.254" cy="2.254" r="2.254" fill="#fff"/>
        <circle id="Ellipse_239" data-name="Ellipse 239" cx="2.254" cy="2.254" r="2.254" transform="translate(0 5.748)" fill="#fff"/>
        <circle id="Ellipse_240" data-name="Ellipse 240" cx="2.254" cy="2.254" r="2.254" transform="translate(0 11.496)" fill="#fff"/>
        <circle id="Ellipse_241" data-name="Ellipse 241" cx="2.254" cy="2.254" r="2.254" transform="translate(17.263)" fill="#fff"/>
        <circle id="Ellipse_242" data-name="Ellipse 242" cx="2.254" cy="2.254" r="2.254" transform="translate(17.263 5.748)" fill="#fff"/>
        <circle id="Ellipse_243" data-name="Ellipse 243" cx="2.254" cy="2.254" r="2.254" transform="translate(17.263 11.496)" fill="#fff"/>
        <circle id="Ellipse_244" data-name="Ellipse 244" cx="2.254" cy="2.254" r="2.254" transform="translate(23.017)" fill="#fff"/>
        <circle id="Ellipse_245" data-name="Ellipse 245" cx="2.254" cy="2.254" r="2.254" transform="translate(23.017 5.748)" fill="#fff"/>
        <circle id="Ellipse_246" data-name="Ellipse 246" cx="2.254" cy="2.254" r="2.254" transform="translate(23.017 11.496)" fill="#fff"/>
        <circle id="Ellipse_247" data-name="Ellipse 247" cx="2.254" cy="2.254" r="2.254" transform="translate(28.771)" fill="#fff"/>
        <circle id="Ellipse_248" data-name="Ellipse 248" cx="2.254" cy="2.254" r="2.254" transform="translate(28.771 5.748)" fill="#fff"/>
        <circle id="Ellipse_249" data-name="Ellipse 249" cx="2.254" cy="2.254" r="2.254" transform="translate(28.771 11.496)" fill="#fff"/>
        <circle id="Ellipse_250" data-name="Ellipse 250" cx="2.254" cy="2.254" r="2.254" transform="translate(34.526)" fill="#fff"/>
        <circle id="Ellipse_251" data-name="Ellipse 251" cx="2.254" cy="2.254" r="2.254" transform="translate(34.526 5.748)" fill="#fff"/>
        <circle id="Ellipse_252" data-name="Ellipse 252" cx="2.254" cy="2.254" r="2.254" transform="translate(34.526 11.496)" fill="#fff"/>
        <circle id="Ellipse_253" data-name="Ellipse 253" cx="2.254" cy="2.254" r="2.254" transform="translate(40.28)" fill="#fff"/>
        <circle id="Ellipse_254" data-name="Ellipse 254" cx="2.254" cy="2.254" r="2.254" transform="translate(40.28 5.748)" fill="#fff"/>
        <circle id="Ellipse_255" data-name="Ellipse 255" cx="2.254" cy="2.254" r="2.254" transform="translate(40.28 11.496)" fill="#fff"/>
      </g>
      <g id="Group_128" data-name="Group 128" transform="translate(0 43.886)">
        <g id="Group_120" data-name="Group 120">
          <circle id="Ellipse_256" data-name="Ellipse 256" cx="2.254" cy="2.254" r="2.254" fill="#fff"/>
          <circle id="Ellipse_257" data-name="Ellipse 257" cx="2.254" cy="2.254" r="2.254" transform="translate(0 5.748)" fill="#fff"/>
          <circle id="Ellipse_258" data-name="Ellipse 258" cx="2.254" cy="2.254" r="2.254" transform="translate(0 11.496)" fill="#fff"/>
        </g>
        <g id="Group_121" data-name="Group 121" transform="translate(5.754)">
          <circle id="Ellipse_259" data-name="Ellipse 259" cx="2.254" cy="2.254" r="2.254" fill="#fff"/>
          <circle id="Ellipse_260" data-name="Ellipse 260" cx="2.254" cy="2.254" r="2.254" transform="translate(0 5.748)" fill="#fff"/>
          <circle id="Ellipse_261" data-name="Ellipse 261" cx="2.254" cy="2.254" r="2.254" transform="translate(0 11.496)" fill="#fff"/>
        </g>
        <g id="Group_122" data-name="Group 122" transform="translate(11.509)">
          <circle id="Ellipse_262" data-name="Ellipse 262" cx="2.254" cy="2.254" r="2.254" fill="#fff"/>
          <circle id="Ellipse_263" data-name="Ellipse 263" cx="2.254" cy="2.254" r="2.254" transform="translate(0 5.748)" fill="#fff"/>
          <circle id="Ellipse_264" data-name="Ellipse 264" cx="2.254" cy="2.254" r="2.254" transform="translate(0 11.496)" fill="#fff"/>
        </g>
        <g id="Group_123" data-name="Group 123" transform="translate(17.263)">
          <circle id="Ellipse_265" data-name="Ellipse 265" cx="2.254" cy="2.254" r="2.254" fill="#fff"/>
          <circle id="Ellipse_266" data-name="Ellipse 266" cx="2.254" cy="2.254" r="2.254" transform="translate(0 5.748)" fill="#fff"/>
          <circle id="Ellipse_267" data-name="Ellipse 267" cx="2.254" cy="2.254" r="2.254" transform="translate(0 11.496)" fill="#fff"/>
        </g>
        <g id="Group_124" data-name="Group 124" transform="translate(23.017)">
          <circle id="Ellipse_268" data-name="Ellipse 268" cx="2.254" cy="2.254" r="2.254" fill="#fff"/>
          <circle id="Ellipse_269" data-name="Ellipse 269" cx="2.254" cy="2.254" r="2.254" transform="translate(0 5.748)" fill="#fff"/>
          <circle id="Ellipse_270" data-name="Ellipse 270" cx="2.254" cy="2.254" r="2.254" transform="translate(0 11.496)" fill="#fff"/>
        </g>
        <g id="Group_125" data-name="Group 125" transform="translate(28.771)">
          <circle id="Ellipse_271" data-name="Ellipse 271" cx="2.254" cy="2.254" r="2.254" fill="#fff"/>
          <circle id="Ellipse_272" data-name="Ellipse 272" cx="2.254" cy="2.254" r="2.254" transform="translate(0 5.748)" fill="#fff"/>
          <circle id="Ellipse_273" data-name="Ellipse 273" cx="2.254" cy="2.254" r="2.254" transform="translate(0 11.496)" fill="#fff"/>
        </g>
        <g id="Group_126" data-name="Group 126" transform="translate(34.526)">
          <circle id="Ellipse_274" data-name="Ellipse 274" cx="2.254" cy="2.254" r="2.254" fill="#fff"/>
          <circle id="Ellipse_275" data-name="Ellipse 275" cx="2.254" cy="2.254" r="2.254" transform="translate(0 5.748)" fill="#fff"/>
          <circle id="Ellipse_276" data-name="Ellipse 276" cx="2.254" cy="2.254" r="2.254" transform="translate(0 11.496)" fill="#fff"/>
        </g>
        <g id="Group_127" data-name="Group 127" transform="translate(40.28)">
          <circle id="Ellipse_277" data-name="Ellipse 277" cx="2.254" cy="2.254" r="2.254" fill="#fff"/>
          <circle id="Ellipse_278" data-name="Ellipse 278" cx="2.254" cy="2.254" r="2.254" transform="translate(0 5.748)" fill="#fff"/>
          <circle id="Ellipse_279" data-name="Ellipse 279" cx="2.254" cy="2.254" r="2.254" transform="translate(0 11.496)" fill="#fff"/>
        </g>
      </g>
      <g id="Group_137" data-name="Group 137" transform="translate(0 65.826)">
        <g id="Group_129" data-name="Group 129">
          <circle id="Ellipse_280" data-name="Ellipse 280" cx="2.254" cy="2.254" r="2.254" fill="#fff"/>
          <circle id="Ellipse_281" data-name="Ellipse 281" cx="2.254" cy="2.254" r="2.254" transform="translate(0 5.748)" fill="#fff"/>
          <circle id="Ellipse_282" data-name="Ellipse 282" cx="2.254" cy="2.254" r="2.254" transform="translate(0 11.496)" fill="#fff"/>
        </g>
        <g id="Group_130" data-name="Group 130" transform="translate(5.754)">
          <circle id="Ellipse_283" data-name="Ellipse 283" cx="2.254" cy="2.254" r="2.254" fill="#fff"/>
          <circle id="Ellipse_284" data-name="Ellipse 284" cx="2.254" cy="2.254" r="2.254" transform="translate(0 5.748)" fill="#fff"/>
          <circle id="Ellipse_285" data-name="Ellipse 285" cx="2.254" cy="2.254" r="2.254" transform="translate(0 11.496)" fill="#fff"/>
        </g>
        <g id="Group_131" data-name="Group 131" transform="translate(11.509)">
          <circle id="Ellipse_286" data-name="Ellipse 286" cx="2.254" cy="2.254" r="2.254" fill="#fff"/>
          <circle id="Ellipse_287" data-name="Ellipse 287" cx="2.254" cy="2.254" r="2.254" transform="translate(0 5.748)" fill="#fff"/>
          <circle id="Ellipse_288" data-name="Ellipse 288" cx="2.254" cy="2.254" r="2.254" transform="translate(0 11.496)" fill="#fff"/>
        </g>
        <g id="Group_132" data-name="Group 132" transform="translate(17.263)">
          <circle id="Ellipse_289" data-name="Ellipse 289" cx="2.254" cy="2.254" r="2.254" fill="#fff"/>
          <circle id="Ellipse_290" data-name="Ellipse 290" cx="2.254" cy="2.254" r="2.254" transform="translate(0 5.748)" fill="#fff"/>
          <circle id="Ellipse_291" data-name="Ellipse 291" cx="2.254" cy="2.254" r="2.254" transform="translate(0 11.496)" fill="#fff"/>
        </g>
        <g id="Group_133" data-name="Group 133" transform="translate(23.017)">
          <circle id="Ellipse_292" data-name="Ellipse 292" cx="2.254" cy="2.254" r="2.254" fill="#fff"/>
          <circle id="Ellipse_293" data-name="Ellipse 293" cx="2.254" cy="2.254" r="2.254" transform="translate(0 5.748)" fill="#fff"/>
          <circle id="Ellipse_294" data-name="Ellipse 294" cx="2.254" cy="2.254" r="2.254" transform="translate(0 11.496)" fill="#fff"/>
        </g>
        <g id="Group_134" data-name="Group 134" transform="translate(28.771)">
          <circle id="Ellipse_295" data-name="Ellipse 295" cx="2.254" cy="2.254" r="2.254" fill="#fff"/>
          <circle id="Ellipse_296" data-name="Ellipse 296" cx="2.254" cy="2.254" r="2.254" transform="translate(0 5.748)" fill="#fff"/>
          <circle id="Ellipse_297" data-name="Ellipse 297" cx="2.254" cy="2.254" r="2.254" transform="translate(0 11.496)" fill="#fff"/>
        </g>
        <g id="Group_135" data-name="Group 135" transform="translate(34.526)">
          <circle id="Ellipse_298" data-name="Ellipse 298" cx="2.254" cy="2.254" r="2.254" fill="#fff"/>
          <circle id="Ellipse_299" data-name="Ellipse 299" cx="2.254" cy="2.254" r="2.254" transform="translate(0 5.748)" fill="#fff"/>
          <circle id="Ellipse_300" data-name="Ellipse 300" cx="2.254" cy="2.254" r="2.254" transform="translate(0 11.496)" fill="#fff"/>
        </g>
        <g id="Group_136" data-name="Group 136" transform="translate(40.28)">
          <circle id="Ellipse_301" data-name="Ellipse 301" cx="2.254" cy="2.254" r="2.254" fill="#fff"/>
          <circle id="Ellipse_302" data-name="Ellipse 302" cx="2.254" cy="2.254" r="2.254" transform="translate(0 5.748)" fill="#fff"/>
          <circle id="Ellipse_303" data-name="Ellipse 303" cx="2.254" cy="2.254" r="2.254" transform="translate(0 11.496)" fill="#fff"/>
        </g>
      </g>
    </g>
  </g>
</svg>
